<svg width="1200" height="630" viewBox="0 0 1200 630" xmlns="http://www.w3.org/2000/svg"><mask id="satori_om-id"><rect x="0" y="0" width="1200" height="630" fill="#fff"/></mask><mask id="satori_om-id-0"><rect x="0" y="30" width="495" height="300" fill="#fff"/></mask><path fill="#282824" d="M2.9 99.4L139.8 99.4L139.8 125.9L87.6 125.9L87.6 272.9L55.3 272.9L55.3 125.9L2.9 125.9L2.9 99.4ZM160.6 149.8L190.2 149.8L190.2 272.9L160.6 272.9L160.6 149.8ZM194.6 113.9L194.6 113.9Q194.6 117.7 193.1 121.1Q191.5 124.4 188.9 127.0Q186.4 129.5 182.9 131.0Q179.4 132.5 175.4 132.5L175.4 132.5Q171.6 132.5 168.2 131.0Q164.8 129.5 162.2 127.0Q159.7 124.4 158.2 121.1Q156.7 117.7 156.7 113.9L156.7 113.9Q156.7 109.9 158.2 106.4Q159.7 103.0 162.2 100.4Q164.8 97.9 168.2 96.4Q171.6 94.9 175.4 94.9L175.4 94.9Q179.4 94.9 182.9 96.4Q186.4 97.9 188.9 100.4Q191.5 103.0 193.1 106.4Q194.6 109.9 194.6 113.9ZM264.1 274.8L264.1 274.8Q248.2 274.8 239.5 265.7Q230.9 256.7 230.9 240.7L230.9 240.7L230.9 172.0L218.4 172.0Q216.0 172.0 214.3 170.4Q212.5 168.8 212.5 165.7L212.5 165.7L212.5 154.0L232.3 150.7L238.6 117.1Q239.0 114.7 240.8 113.4Q242.5 112.1 245.2 112.1L245.2 112.1L260.5 112.1L260.5 150.8L292.9 150.8L292.9 172.0L260.5 172.0L260.5 238.7Q260.5 244.4 263.4 247.7Q266.3 250.9 271.1 250.9L271.1 250.9Q273.8 250.9 275.7 250.3Q277.6 249.6 278.9 248.9Q280.3 248.2 281.4 247.5Q282.5 246.8 283.6 246.8L283.6 246.8Q284.9 246.8 285.7 247.5Q286.6 248.2 287.5 249.5L287.5 249.5L296.4 263.9Q289.9 269.3 281.5 272.0Q273.1 274.8 264.1 274.8ZM318.5 94.6L348.1 94.6L348.1 272.9L318.5 272.9L318.5 94.6ZM432.5 147.8L432.5 147.8Q444.1 147.8 453.9 151.6Q463.7 155.3 470.8 162.4Q477.8 169.6 481.8 179.9Q485.8 190.3 485.8 203.6L485.8 203.6Q485.8 207 485.5 209.2Q485.2 211.4 484.4 212.7Q483.6 214.0 482.3 214.5Q481.0 215.0 478.9 215.0L478.9 215.0L402.8 215.0Q404.2 234 413.0 242.9Q421.9 251.8 436.6 251.8L436.6 251.8Q443.8 251.8 449.0 250.1Q454.2 248.4 458.1 246.4Q462 244.3 464.9 242.6Q467.9 241.0 470.6 241.0L470.6 241.0Q472.4 241.0 473.8 241.7Q475.1 242.4 476.0 243.7L476.0 243.7L484.7 254.5Q479.8 260.3 473.6 264.2Q467.5 268.1 460.9 270.4Q454.2 272.8 447.3 273.7Q440.4 274.7 433.9 274.7L433.9 274.7Q421.1 274.7 410.0 270.4Q399 266.2 390.8 257.8Q382.7 249.5 378 237.2Q373.3 224.9 373.3 208.7L373.3 208.7Q373.3 196.1 377.4 185.0Q381.5 173.9 389.1 165.7Q396.7 157.4 407.7 152.6Q418.7 147.8 432.5 147.8ZM433.1 169.1L433.1 169.1Q420.1 169.1 412.8 176.4Q405.5 183.7 403.4 197.2L403.4 197.2L459.1 197.2Q459.1 191.4 457.6 186.3Q456 181.2 452.8 177.4Q449.5 173.5 444.6 171.3Q439.7 169.1 433.1 169.1Z "/><mask id="satori_om-id-1"><rect x="0" y="384" width="680" height="216" fill="#fff"/></mask><path fill="#4A4A45" d="M46.0 544.2L11.7 544.2L11.7 447.5L42.6 447.5Q51.5 447.5 57.9 449.3Q64.4 451.0 68.5 454.3Q72.7 457.5 74.7 462.2Q76.7 466.9 76.7 472.8L76.7 472.8Q76.7 476.3 75.6 479.6Q74.5 483.0 72.2 485.8Q69.9 488.6 66.5 490.9Q63.1 493.1 58.5 494.5L58.5 494.5Q69.1 496.6 74.5 502.1Q79.9 507.7 79.9 516.7L79.9 516.7Q79.9 522.8 77.7 527.9Q75.4 533.0 71.0 536.6Q66.7 540.3 60.4 542.3Q54.1 544.2 46.0 544.2L46.0 544.2ZM45.7 500.2L24.8 500.2L24.8 533.9L45.8 533.9Q51.4 533.9 55.4 532.6Q59.4 531.3 62.0 529.0Q64.6 526.6 65.8 523.4Q67.0 520.2 67.0 516.4L67.0 516.4Q67.0 508.9 61.7 504.5Q56.4 500.2 45.7 500.2L45.7 500.2ZM24.8 457.8L24.8 490.9L42.1 490.9Q47.7 490.9 51.7 489.6Q55.8 488.4 58.4 486.3Q61.1 484.1 62.4 481.0Q63.7 478.0 63.7 474.3L63.7 474.3Q63.7 465.8 58.5 461.8Q53.4 457.8 42.6 457.8L42.6 457.8L24.8 457.8ZM124.9 474.8L124.9 474.8Q132.4 474.8 138.4 477.3Q144.4 479.8 148.7 484.4Q152.9 489.0 155.1 495.5Q157.4 502.0 157.4 510.0L157.4 510.0Q157.4 518.1 155.1 524.6Q152.9 531.1 148.7 535.7Q144.4 540.3 138.4 542.7Q132.4 545.2 124.9 545.2L124.9 545.2Q117.4 545.2 111.3 542.7Q105.3 540.3 101.0 535.7Q96.8 531.1 94.5 524.6Q92.2 518.1 92.2 510.0L92.2 510.0Q92.2 502.0 94.5 495.5Q96.8 489.0 101.0 484.4Q105.3 479.8 111.3 477.3Q117.4 474.8 124.9 474.8ZM124.9 535.8L124.9 535.8Q135 535.8 140.0 529.0Q145.0 522.2 145.0 510.1L145.0 510.1Q145.0 497.9 140.0 491.1Q135 484.2 124.9 484.2L124.9 484.2Q119.7 484.2 116.0 486.0Q112.2 487.7 109.7 491.1Q107.1 494.4 105.9 499.2Q104.6 504.0 104.6 510.1L104.6 510.1Q104.6 516.2 105.9 521.0Q107.1 525.8 109.7 529.0Q112.2 532.3 116.0 534.1Q119.7 535.8 124.9 535.8ZM227.5 544.2L220.4 544.2Q217.8 544.2 217.1 541.7L217.1 541.7L216.1 533.4Q211.7 538.8 206.0 542.0Q200.4 545.2 193.1 545.2L193.1 545.2Q187.2 545.2 182.5 542.9Q177.7 540.7 174.3 536.3Q170.9 531.9 169.1 525.3Q167.3 518.8 167.3 510.3L167.3 510.3Q167.3 502.7 169.3 496.2Q171.3 489.7 175.1 484.9Q178.9 480.1 184.4 477.4Q189.9 474.7 196.8 474.7L196.8 474.7Q203.1 474.7 207.6 476.8Q212.0 478.9 215.5 482.8L215.5 482.8L215.5 444.8L227.5 444.8L227.5 544.2ZM197.1 535.5L197.1 535.5Q203.0 535.5 207.4 532.8Q211.8 530.1 215.5 525.1L215.5 525.1L215.5 492.1Q212.2 487.6 208.3 485.8Q204.3 484.0 199.5 484.0L199.5 484.0Q189.9 484.0 184.8 490.9Q179.7 497.7 179.7 510.3L179.7 510.3Q179.7 517.0 180.8 521.7Q182.0 526.5 184.2 529.6Q186.4 532.6 189.7 534.1Q192.9 535.5 197.1 535.5ZM305.9 475.9L267.8 564.4Q267.2 565.8 266.3 566.6Q265.3 567.4 263.5 567.4L263.5 567.4L254.5 567.4L267.0 540.3L238.8 475.9L249.2 475.9Q250.8 475.9 251.6 476.6Q252.5 477.4 252.9 478.4L252.9 478.4L271.2 521.4Q271.8 522.9 272.3 524.4Q272.7 525.9 273.0 527.4L273.0 527.4Q273.5 525.9 274.0 524.4Q274.5 522.9 275.1 521.4L275.1 521.4L292.8 478.4Q293.2 477.3 294.2 476.6Q295.2 475.9 296.3 475.9L296.3 475.9L305.9 475.9Z M377.6 446.4L377.6 446.4Q382.9 446.4 387.3 448.2Q391.7 449.9 394.9 452.7Q398.1 455.6 400.0 459.3Q401.8 463.0 402.1 467.1L402.1 467.1L394.6 468.6Q394.3 468.6 394.0 468.6L394.0 468.6Q393.1 468.6 392.3 468.2Q391.6 467.7 391.2 466.5L391.2 466.5Q390.8 464.7 389.7 462.8Q388.7 460.9 387.0 459.4Q385.4 457.8 383.0 456.8Q380.7 455.8 377.6 455.8L377.6 455.8Q374.2 455.8 371.5 456.9Q368.8 458.0 366.9 459.9Q365.0 461.8 363.9 464.4Q362.9 467.0 362.9 470.1L362.9 470.1Q362.9 472.4 363.5 474.6Q364.0 476.7 365.2 478.9Q366.3 481.1 368.1 483.5Q370.0 485.8 372.5 488.4L372.5 488.4L400.3 516.6Q402.9 512.1 404.4 507.2Q405.9 502.2 406.5 497.2L406.5 497.2Q406.6 495.9 407.3 495.2Q408.0 494.4 409.2 494.4L409.2 494.4L416.6 494.4Q416.5 502.2 414.1 509.7Q411.7 517.2 407.3 523.7L407.3 523.7L427.5 544.2L415.9 544.2Q414.0 544.2 412.8 543.8Q411.5 543.3 410.1 541.8L410.1 541.8L400.3 532.0Q394.0 538.2 385.7 541.7Q377.5 545.3 367.5 545.3L367.5 545.3Q362.1 545.3 356.9 543.5Q351.7 541.7 347.7 538.2Q343.6 534.7 341.1 529.7Q338.6 524.7 338.6 518.5L338.6 518.5Q338.6 513.7 340.2 509.5Q341.8 505.3 344.6 501.7Q347.4 498.1 351.2 495.3Q355.0 492.5 359.6 490.4L359.6 490.4Q355.5 485.3 353.6 480.3Q351.6 475.4 351.6 470.1L351.6 470.1Q351.6 465.2 353.4 460.9Q355.2 456.6 358.6 453.4Q361.9 450.1 366.8 448.3Q371.6 446.4 377.6 446.4ZM350.8 517.5L350.8 517.5Q350.8 521.9 352.4 525.2Q354.0 528.6 356.7 530.9Q359.3 533.2 362.7 534.4Q366.1 535.5 369.6 535.5L369.6 535.5Q377.1 535.5 383.1 532.8Q389.1 530.0 393.7 525.4L393.7 525.4L365.2 496.6Q358.0 500.4 354.4 505.8Q350.8 511.2 350.8 517.5Z "/><mask id="satori_om-id-1-1"><rect x="455" y="384" width="225" height="216" fill="#fff"/></mask><path fill="#282824" d="M465.0 443.9L481.7 443.9L481.7 544.2L465.0 544.2L465.0 443.9ZM501.6 475.0L518.2 475.0L518.2 544.2L501.6 544.2L501.6 475.0ZM520.7 454.8L520.7 454.8Q520.7 457.0 519.9 458.9Q519.0 460.7 517.5 462.2Q516.1 463.6 514.1 464.4Q512.2 465.3 509.9 465.3L509.9 465.3Q507.8 465.3 505.9 464.4Q503.9 463.6 502.5 462.2Q501.1 460.7 500.3 458.9Q499.4 457.0 499.4 454.8L499.4 454.8Q499.4 452.6 500.3 450.6Q501.1 448.7 502.5 447.2Q503.9 445.8 505.9 445.0Q507.8 444.1 509.9 444.1L509.9 444.1Q512.2 444.1 514.1 445.0Q516.1 445.8 517.5 447.2Q519.0 448.7 519.9 450.6Q520.7 452.6 520.7 454.8ZM553.8 544.2L537.1 544.2L537.1 475.0L547.3 475.0Q550.5 475.0 551.5 478.0L551.5 478.0L552.7 483.5Q554.8 481.3 557.1 479.6Q559.4 477.8 562.0 476.5Q564.6 475.3 567.6 474.6Q570.6 473.9 574.1 473.9L574.1 473.9Q579.7 473.9 584.1 475.8Q588.5 477.8 591.5 481.2Q594.4 484.7 595.9 489.5Q597.4 494.4 597.4 500.2L597.4 500.2L597.4 544.2L580.8 544.2L580.8 500.2Q580.8 493.8 577.8 490.3Q574.9 486.9 569.0 486.9L569.0 486.9Q564.7 486.9 560.9 488.8Q557.1 490.8 553.8 494.2L553.8 494.2L553.8 544.2ZM614.0 443.9L630.7 443.9L630.7 501.4L633.8 501.4Q635.5 501.4 636.4 500.9Q637.4 500.4 638.5 499.2L638.5 499.2L655.7 477.9Q656.8 476.5 658.1 475.8Q659.4 475.0 661.5 475.0L661.5 475.0L676.7 475.0L655.2 500.7Q654.1 502.1 652.8 503.3Q651.6 504.5 650.2 505.4L650.2 505.4Q651.6 506.4 652.7 507.7Q653.8 509.1 654.9 510.6L654.9 510.6L678.0 544.2L662.9 544.2Q660.9 544.2 659.6 543.6Q658.2 542.9 657.2 541.3L657.2 541.3L639.5 515.0Q638.5 513.5 637.5 513.0Q636.5 512.5 634.5 512.5L634.5 512.5L630.7 512.5L630.7 544.2L614.0 544.2L614.0 443.9Z "/><line x1="455" y1="560.2695" x2="679.37" y2="560.2695" stroke="#282824" stroke-width="13.5" stroke-linecap="square"/></svg>