<svg width="1200" height="630" viewBox="0 0 1200 630" xmlns="http://www.w3.org/2000/svg"><mask id="satori_om-id"><rect x="0" y="0" width="1200" height="630" fill="#fff"/></mask><clipPath id="satori_bct-id-0"><path d="M110.3 250.3L38.2 250.3Q36.2 250.3 35.2 248.0Q34.2 245.6 34.2 244.3L34.2 244.3Q34.2 240.5 38.1 240L38.1 240Q43.6 239.6 49.2 238.8Q54.7 237.9 58.4 235.6Q62.1 233.3 62.1 229.0L62.1 229.0L62.2 95.6L32.5 95.6Q27.4 95.6 24.1 100.3Q20.9 105 18.9 111.6Q17.0 118.2 16.1 124.3Q15.2 130.4 15 133.2L15 133.2Q14.8 135.5 13.7 136.3Q12.5 137.1 10.7 137.1L10.7 137.1Q9.4 137.1 7.0 136.1Q4.6 135.1 4.7 133.1L4.7 133.1Q4.9 127.4 5.3 119.1Q5.7 110.9 6.3 102.8Q6.9 94.8 7.5 89.4Q8.1 84.0 8.8 84.0L8.8 84.0L139.8 84.0Q140.5 84.0 141.1 89.4Q141.7 94.8 142.3 102.8Q142.9 110.9 143.3 119.1Q143.7 127.4 143.8 133.1L143.8 133.1Q143.8 135.1 141.4 136.1Q139.1 137.1 137.8 137.1L137.8 137.1Q135.9 137.1 134.8 136.3Q133.7 135.5 133.5 133.2L133.5 133.2Q133.2 130.4 132.4 124.3Q131.5 118.2 129.6 111.6Q127.7 105 124.5 100.3Q121.2 95.6 116.1 95.6L116.1 95.6L86.5 95.6L86.4 228.6Q86.4 233.7 90.3 236.0Q94.2 238.2 99.8 238.9Q105.4 239.6 110.0 240L110.0 240Q112.5 240.2 113.4 240.9Q114.3 241.6 114.3 244.3L114.3 244.3Q114.3 245.6 113.3 248.0Q112.3 250.3 110.3 250.3L110.3 250.3ZM210.5 250.3L160.7 250.3Q158.7 250.3 157.7 248.6Q156.7 246.8 156.7 245.5L156.7 245.5Q156.7 241.6 160.5 241.2L160.5 241.2Q164.9 240.6 169.5 239.1Q174.0 237.5 174.0 233.7L174.0 233.7L174.1 159.1Q174.1 151.9 171.1 149.2Q168.0 146.5 163.9 145.9Q159.8 145.3 156.7 144.5L156.7 144.5Q155.5 143.9 154.7 143.0Q153.9 142.0 153.9 139.8L153.9 139.8Q153.9 138.4 154.6 136.6Q155.3 134.8 156.7 134.6L156.7 134.6Q168.4 133.9 177.9 133.7Q187.4 133.5 192.4 133.5L192.4 133.5Q193.4 133.5 194.5 134.4Q195.7 135.4 195.9 138.2L195.9 138.2L195.9 229.8Q195.9 234.8 198.3 237.1Q200.7 239.4 204.1 240.1Q207.4 240.8 210.2 241.2L210.2 241.2Q212.7 241.4 213.6 242.1Q214.5 242.8 214.5 245.5L214.5 245.5Q214.5 246.8 213.5 248.6Q212.5 250.3 210.5 250.3L210.5 250.3ZM184.7 112.9L184.7 112.9Q178.2 112.9 174.4 108.1Q170.5 103.4 170.5 96.6L170.5 96.6Q170.5 89.6 174.4 85.0Q178.2 80.3 184.7 80.3L184.7 80.3Q191.1 80.3 195 85.0Q198.9 89.6 198.9 96.6L198.9 96.6Q198.9 103.4 195 108.1Q191.1 112.9 184.7 112.9ZM268.5 253.8L268.5 253.8Q257.9 253.8 251.4 250.7Q244.8 247.6 241.7 241.1Q238.6 234.5 238.6 224.2L238.6 224.2L238.6 144.0L225.1 144.0Q223.7 143.9 223.0 142.7Q222.3 141.4 222.3 140.0L222.3 140.0Q222.3 135 225.6 135L225.6 135Q233.1 134.2 237.9 131.0Q242.7 127.7 246.0 120.7Q249.3 113.7 252.0 101.7L252.0 101.7Q252.3 100.0 253.6 99.5Q254.9 99.0 257.0 99.0L257.0 99.0Q259.3 99.0 259.9 99.6Q260.4 100.2 260.4 101.8L260.4 101.8L260.4 133.8L295.0 133.8Q296.4 133.9 297.1 135.2Q297.8 136.4 297.8 137.8L297.8 137.8Q297.8 140.3 296.8 142.1Q295.8 144.0 294.5 144.0L294.5 144.0L260.4 144.0L260.4 215.6Q260.4 225.6 262.4 230.8Q264.4 236.0 267.4 237.9Q270.5 239.9 273.4 239.9L273.4 239.9Q281.5 239.9 286.2 238.3Q291.0 236.7 295.3 233.8L295.3 233.8Q296.5 233.0 297.7 234.6Q298.9 236.3 299.6 238.4Q300.4 240.5 299.5 241.2L299.5 241.2Q297.1 243.3 292.1 246.3Q287.2 249.3 281.0 251.5Q274.8 253.8 268.5 253.8ZM359.1 250.3L310.2 250.3Q308.3 250.3 307.1 248.8Q305.9 247.4 305.9 245.5L305.9 245.5Q305.9 241.6 309.7 241.2L309.7 241.2Q314.1 240.7 318.8 239.1Q323.4 237.5 323.4 233.7L323.4 233.7L323.6 93.4Q323.6 86.1 320.2 83.4Q316.8 80.7 312.3 80.2Q307.9 79.6 304.7 78.8L304.7 78.8Q303.5 78.2 302.7 77.2Q301.9 76.3 301.9 74.1L301.9 74.1Q301.9 72.7 302.6 70.8Q303.3 68.9 304.7 68.8L304.7 68.8Q316.4 68.1 326.5 68.0Q336.6 67.9 341.6 67.7L341.6 67.7Q342.5 67.7 343.7 68.7Q344.9 69.6 345.1 72.4L345.1 72.4L345.1 229.8Q345.1 234.8 347.5 237.1Q349.9 239.4 353.3 240.1Q356.6 240.8 359.4 241.2L359.4 241.2Q361.9 241.4 362.8 242.3Q363.6 243.2 363.6 245.2L363.6 245.2Q363.6 247.3 362.4 248.8Q361.2 250.3 359.1 250.3L359.1 250.3ZM432.7 253.7L432.7 253.7Q405.8 253.7 392.1 237.4Q378.4 221.0 378.4 191.7L378.4 191.7Q378.4 172.1 385.8 158.7Q393.2 145.3 405.2 138.4Q417.3 131.5 431.3 131.5L431.3 131.5Q446.0 131.5 455.3 136.6Q464.6 141.7 469.7 150.8Q474.8 159.8 477.0 171.9L477.0 171.9Q477.8 176.4 478.1 181.3Q478.4 186.2 478.4 191.4L478.4 191.4L403.6 191.4Q403.7 209.9 408.5 220.9Q413.3 231.9 420.6 236.7Q428.0 241.5 435.7 241.5L435.7 241.5Q444.6 241.5 452.0 237.5Q459.4 233.4 463.1 225.9L463.1 225.9Q463.5 225.2 463.8 224.5Q464.2 223.8 465.4 224.1L465.4 224.1L471.2 226.8Q472.5 227.2 472.5 228.2L472.5 228.2Q472.5 228.6 472.3 229.2Q472.0 229.7 471.8 230.0L471.8 230.0Q466.6 240.4 457.1 247.0Q447.7 253.7 432.7 253.7ZM403.8 181.3L403.8 181.3L452.3 180.6Q452.3 160.2 446.3 151.5Q440.2 142.7 431.1 142.7L431.1 142.7Q422.8 142.7 417.0 145.4Q411.1 148.1 407.8 156.4Q404.5 164.6 403.8 181.3Z "/></clipPath><defs><pattern id="satori_pattern_id-0_0" x="0" y="0" width="1" height="1" patternUnits="objectBoundingBox"><linearGradient id="satori_biid-0_0" x1="1.1025222689031948" y1="0.27698240032583327" x2="-0.10252226890319492" y2="0.7230175996741667" spreadMethod="pad"><stop offset="0%" stop-color="#EBCCBB"/><stop offset="10%" stop-color="#EBCCBB"/><stop offset="90%" stop-color="#C49F8C"/><stop offset="100%" stop-color="#C49F8C"/></linearGradient><rect x="0" y="0" width="487" height="300" fill="url(#satori_biid-0_0)"/></pattern></defs><mask id="satori_om-id-0"><rect x="0" y="30" width="487" height="300" fill="#fff"/></mask><rect x="0" y="30" width="487" height="300" fill="url(#satori_pattern_id-0_0)" clip-path="url(#satori_bct-id-0)"/><mask id="satori_om-id-1"><rect x="0" y="384" width="698" height="216" fill="#fff"/></mask><path fill="#C9C2C0" d="M48.9 531.6L6.6 531.6Q5.5 531.6 4.9 530.2Q4.4 528.9 4.4 528.2L4.4 528.2Q4.4 526.0 6.5 525.8L6.5 525.8Q9.2 525.6 11.8 525.1Q14.4 524.7 16.2 523.8Q18.1 523.0 18.1 521.5L18.1 521.5L18.1 450.2Q18.1 447.4 16.1 446.1Q14.1 444.8 11.3 444.4Q8.6 443.9 6.1 443.8L6.1 443.8Q4.7 443.7 4.3 443.3Q3.8 442.8 3.8 441.4L3.8 441.4Q3.8 440.6 4.3 439.3Q4.9 438.0 6.0 438.0L6.0 438.0L45.9 438.0Q53.9 438.0 61.1 439.9Q68.2 441.7 72.7 446.3Q77.3 450.8 77.3 459.0L77.3 459.0Q77.3 465.6 74.3 470.1Q71.3 474.7 66.5 477.4Q61.7 480.0 56.4 480.7L56.4 480.7L56.6 480.3Q60.8 480.5 65.3 481.8Q69.9 483.0 73.9 485.7Q77.8 488.4 80.4 492.9Q82.9 497.3 82.9 504.1L82.9 504.1Q82.9 511.3 79.8 516.5Q76.8 521.7 71.8 525.1Q66.8 528.4 60.8 530.0Q54.8 531.6 48.9 531.6L48.9 531.6ZM31.5 443.6L31.5 477.9L42.6 477.9Q47.7 477.9 52.4 476.2Q57.0 474.5 60.0 470.6Q63.0 466.8 63.0 460.0L63.0 460.0Q63.0 451.0 57.4 447.3Q51.9 443.6 43.5 443.6L43.5 443.6L31.5 443.6ZM43.9 524.8L43.9 524.8Q47.3 524.8 51.5 524.1Q55.6 523.4 59.5 521.2Q63.3 519.1 65.8 514.9Q68.2 510.7 68.2 503.8L68.2 503.8Q68.2 496.3 65.4 492.2Q62.5 488.2 58.1 486.5Q53.7 484.8 49.0 484.5Q44.4 484.2 40.8 484.2L40.8 484.2L31.5 484.2L31.5 522.4Q31.5 522.4 31.9 523.0Q32.3 523.6 34.9 524.2Q37.4 524.8 43.9 524.8ZM93.3 499.1L93.3 499.1Q93.3 489.6 97.1 481.8Q100.9 474.0 108.0 469.4Q115.1 464.7 125.0 464.7L125.0 464.7Q134.9 464.7 141.8 469.4Q148.7 474.0 152.3 481.8Q156.0 489.6 156.0 499.1L156.0 499.1Q156.0 508.6 152.2 516.4Q148.5 524.2 141.5 528.8Q134.4 533.5 124.5 533.5L124.5 533.5Q114.6 533.5 107.7 528.8Q100.7 524.2 97.0 516.4Q93.3 508.6 93.3 499.1ZM107.5 499.1L107.5 499.1Q107.5 512.4 111.1 519.8Q114.8 527.2 124.7 527.2L124.7 527.2Q134.7 527.2 138.2 519.8Q141.7 512.4 141.7 499.1L141.7 499.1Q141.7 485.9 138.0 478.5Q134.4 471.0 124.5 471.0L124.5 471.0Q114.5 471.0 111.0 478.5Q107.5 485.9 107.5 499.1ZM195.6 533.5L195.6 533.5Q185.3 533.5 179.0 528.6Q172.7 523.7 169.9 515.9Q167.1 508.0 167.1 499.1L167.1 499.1Q167.1 490.2 170.3 482.4Q173.4 474.5 180.1 469.6Q186.7 464.7 197.1 464.7L197.1 464.7Q202.5 464.7 207.2 465.9Q212.0 467.0 215.0 470.0L215.0 470.0L214.4 458.8L214.4 443.3Q214.4 440.2 212.9 438.6Q211.5 437.1 209.5 436.5Q207.4 435.8 205.3 435.6Q203.2 435.4 201.9 435.0L201.9 435.0Q201.2 434.7 200.8 434.2Q200.3 433.7 200.3 432.4L200.3 432.4Q200.3 431.6 200.7 430.6Q201.1 429.5 201.9 429.4L201.9 429.4Q206.3 429.2 210.8 429.0Q215.4 428.9 219.1 428.9Q222.8 428.9 224.6 428.9L224.6 428.9Q225.2 428.9 225.8 429.4Q226.5 429.9 226.6 431.5L226.6 431.5L226.6 520.0Q226.6 524.2 229.1 525.2Q231.6 526.1 234.0 526.4L234.0 526.4Q235.4 526.5 235.9 526.9Q236.4 527.3 236.4 528.8L236.4 528.8Q236.4 529.6 235.8 530.6Q235.3 531.6 234.1 531.6L234.1 531.6L219.4 531.6Q215.7 531.6 215.0 529.9Q214.3 528.3 214.4 525.2L214.4 525.2Q210.9 528.9 205.6 531.2Q200.3 533.5 195.6 533.5ZM199.8 527.2L199.8 527.2Q203.6 527.2 207.9 525.0Q212.2 522.8 214.4 519.9L214.4 519.9L214.4 477.9Q212.5 474.4 208.8 472.7Q205.0 471.0 199.5 471.0L199.5 471.0Q192.2 471.0 188.2 474.7Q184.2 478.4 182.7 484.7Q181.2 491.1 181.2 499.1L181.2 499.1Q181.2 507.0 182.8 513.4Q184.4 519.8 188.4 523.5Q192.4 527.2 199.8 527.2ZM254.8 561.1L254.8 561.1Q251.7 561.1 249.0 560.1Q246.3 559.0 244.8 557.1Q243.2 555.3 243.2 553.0L243.2 553.0Q243.2 548.6 245.3 546.8Q247.4 545.0 248.8 545.0L248.8 545.0L257.0 553.0Q258.7 552.7 260.7 551.0Q262.6 549.3 264.9 545.2Q267.2 541.0 270 533.4L270 533.4L247.7 476.9Q245.7 473.6 243.9 472.5Q242.1 471.4 239.7 471.2L239.7 471.2Q238.3 471.0 237.8 470.6Q237.3 470.2 237.3 468.7L237.3 468.7Q237.3 468.0 237.9 467.0Q238.4 466.0 239.5 466.0L239.5 466.0L266.7 466.0Q267.8 466.0 268.4 467.0Q268.9 468.0 268.9 468.7L268.9 468.7Q268.9 470.9 266.8 471.2L266.8 471.2Q264.3 471.4 262.1 472.0Q259.8 472.6 259.8 474.7L259.8 474.7L275.9 518.4L290.4 474.7Q290.4 472.6 287.8 472.0Q285.2 471.4 282.7 471.2L282.7 471.2Q280.5 470.9 280.5 468.7L280.5 468.7Q280.5 468.0 281.1 467.0Q281.7 466.0 282.8 466.0L282.8 466.0L304.9 466.0Q306.0 466.0 306.6 467.0Q307.1 468.0 307.1 468.7L307.1 468.7Q307.1 470.2 306.6 470.6Q306.1 471.0 304.7 471.2L304.7 471.2Q302.3 471.4 300.8 472.5Q299.3 473.6 297.4 476.9L297.4 476.9L277.4 532.1Q276.0 536.0 274.0 540.9Q272.0 545.9 269.3 550.5Q266.6 555.1 263.0 558.1Q259.5 561.1 254.8 561.1Z M373.0 533.5L373.0 533.5Q363.7 533.5 356.8 530.0Q349.9 526.6 346.1 520.7Q342.3 514.9 342.3 507.5L342.3 507.5Q342.3 501.3 344.7 496.4Q347.1 491.5 351.8 487.8Q356.5 484.2 363.2 481.6L363.2 481.6Q358.9 476.2 355.6 470.3Q352.3 464.4 352.3 458.4L352.3 458.4Q352.3 452.6 354.8 447.5Q357.3 442.4 362.7 439.2Q368.0 436.1 376.5 436.1L376.5 436.1Q386.9 436.1 392.6 440.7Q398.3 445.3 398.3 452.6L398.3 452.6Q398.3 458.6 396.5 462.8Q394.8 466.9 390.2 470.6Q385.6 474.3 377.1 479.3L377.1 479.3L401.0 506.3Q402.1 504.0 403.6 500.2Q405.1 496.4 406.5 492.3Q408.0 488.2 408.9 485.2Q409.9 482.2 409.9 481.5L409.9 481.5Q409.9 480.0 408.4 479.2Q407.0 478.4 405.1 478.1Q403.3 477.8 402.0 477.6L402.0 477.6Q400.7 477.5 400.3 476.9Q399.9 476.2 399.9 475.2L399.9 475.2Q399.9 474.2 400.5 473.3Q401.0 472.5 402.2 472.5L402.2 472.5L428.1 472.5Q429.2 472.5 429.8 473.3Q430.3 474.2 430.3 475.2L430.3 475.2Q430.3 477.6 428.1 477.6L428.1 477.6Q424.8 477.6 422.2 478.9Q419.7 480.2 418.1 482.7L418.1 482.7Q416.4 485.9 414.4 490.3Q412.4 494.7 410.1 499.9Q407.8 505.1 405.1 510.8L405.1 510.8L414.0 520.9Q416.0 522.8 419.6 524.5Q423.1 526.1 426.2 526.4L426.2 526.4Q427.6 526.5 428.1 526.9Q428.6 527.3 428.6 528.8L428.6 528.8Q428.6 529.8 428.0 530.7Q427.5 531.6 426.4 531.6L426.4 531.6L407.0 531.6L398.4 521.8Q393.8 527.1 387.6 530.3Q381.5 533.5 373.0 533.5ZM373.8 475.5L373.8 475.5Q379.0 472.1 381.9 469.4Q384.8 466.7 385.9 463.0Q387.1 459.4 387.1 453.0L387.1 453.0Q387.1 450.7 386.0 447.9Q384.9 445.0 382.5 442.8Q380.0 440.6 376.0 440.6L376.0 440.6Q371.6 440.6 368.1 444.3Q364.7 448.0 364.7 453.2L364.7 453.2Q364.7 457.9 365.6 461.6Q366.6 465.3 368.6 468.6Q370.6 472.0 373.8 475.5ZM373.5 527.1L373.5 527.1Q378.7 527.1 383.9 525.0Q389.0 522.8 394.3 517.1L394.3 517.1L366.6 485.1Q362.1 487.9 359.9 491.7Q357.7 495.4 357.1 499.5Q356.4 503.6 356.4 507.5L356.4 507.5Q356.4 512.4 358.2 516.9Q360.0 521.4 363.8 524.3Q367.6 527.1 373.5 527.1Z "/><mask id="satori_om-id-1-1"><rect x="467" y="384" width="231" height="216" fill="#fff"/></mask><path fill="#C49F8C" d="M499.3 531.6L471.8 531.6Q470.8 531.6 470.1 530.7Q469.4 529.9 469.4 528.8L469.4 528.8Q469.4 526.7 471.5 526.4L471.5 526.4Q474.0 526.1 476.6 525.3Q479.3 524.4 479.3 522.2L479.3 522.2L479.3 443.3Q479.3 439.2 477.4 437.7Q475.5 436.2 473.0 435.8Q470.5 435.5 468.7 435.0L468.7 435.0Q468.1 434.7 467.6 434.2Q467.1 433.7 467.1 432.4L467.1 432.4Q467.1 431.6 467.5 430.6Q467.9 429.5 468.7 429.4L468.7 429.4Q475.3 429.0 481.0 429.0Q486.6 428.9 489.5 428.9L489.5 428.9Q490.0 428.9 490.7 429.4Q491.3 429.9 491.5 431.5L491.5 431.5L491.5 520.0Q491.5 522.8 492.8 524.1Q494.2 525.4 496.0 525.8Q497.9 526.2 499.5 526.4L499.5 526.4Q500.9 526.5 501.4 527.0Q501.9 527.5 501.9 528.7L501.9 528.7Q501.9 529.8 501.2 530.7Q500.5 531.6 499.3 531.6L499.3 531.6ZM540.5 531.6L512.5 531.6Q511.4 531.6 510.8 530.6Q510.2 529.6 510.2 528.8L510.2 528.8Q510.2 526.7 512.4 526.4L512.4 526.4Q514.9 526.1 517.4 525.2Q520.0 524.4 520.0 522.2L520.0 522.2L520.1 480.3Q520.1 476.2 518.4 474.7Q516.6 473.1 514.3 472.8Q512.0 472.5 510.2 472.0L510.2 472.0Q509.6 471.7 509.1 471.2Q508.7 470.6 508.7 469.4L508.7 469.4Q508.7 468.6 509.1 467.6Q509.5 466.6 510.2 466.5L510.2 466.5Q516.8 466.1 522.2 466.0Q527.5 465.8 530.3 465.8L530.3 465.8Q530.9 465.8 531.5 466.4Q532.2 466.9 532.3 468.5L532.3 468.5L532.3 520.0Q532.3 522.8 533.7 524.1Q535.0 525.4 536.9 525.8Q538.8 526.2 540.4 526.4L540.4 526.4Q541.8 526.5 542.2 526.9Q542.7 527.3 542.7 528.8L542.7 528.8Q542.7 529.6 542.2 530.6Q541.6 531.6 540.5 531.6L540.5 531.6ZM526.0 454.2L526.0 454.2Q522.4 454.2 520.2 451.6Q518.0 448.9 518.0 445.1L518.0 445.1Q518.0 441.2 520.2 438.5Q522.4 435.9 526.0 435.9L526.0 435.9Q529.6 435.9 531.8 438.5Q534.0 441.2 534.0 445.1L534.0 445.1Q534.0 448.9 531.8 451.6Q529.6 454.2 526.0 454.2ZM579.3 531.6L552.0 531.6Q550.8 531.6 550.3 530.6Q549.7 529.6 549.7 528.8L549.7 528.8Q549.7 526.7 551.9 526.4L551.9 526.4Q554.3 526.1 556.9 525.2Q559.5 524.4 559.5 522.2L559.5 522.2L559.5 480.3Q559.5 476.2 557.8 474.7Q556.0 473.1 553.7 472.8Q551.4 472.5 549.7 472.0L549.7 472.0Q549.1 471.7 548.6 471.2Q548.1 470.6 548.1 469.4L548.1 469.4Q548.1 468.6 548.5 467.5Q548.9 466.5 549.7 466.4L549.7 466.4Q556.1 466.0 561.3 465.9Q566.5 465.8 569.2 465.8L569.2 465.8Q569.7 465.8 570.4 466.4Q571.0 466.9 571.2 468.5L571.2 468.5L571.2 475.9Q572.3 474.7 576.0 472.0Q579.7 469.3 585.0 467.0Q590.3 464.7 596.5 464.7L596.5 464.7Q600.8 464.7 604.4 465.9Q608.0 467.1 610.2 470.7Q612.3 474.2 612.3 481.1L612.3 481.1L612.3 520.0Q612.3 523.2 613.9 524.4Q615.5 525.7 617.6 525.9Q619.7 526.1 621.4 526.4L621.4 526.4Q622.5 526.5 623.0 527.0Q623.6 527.4 623.6 528.8L623.6 528.8Q623.6 529.6 623.0 530.6Q622.4 531.6 621.3 531.6L621.3 531.6L593.2 531.6Q592.0 531.6 591.5 530.6Q590.9 529.6 590.9 528.8L590.9 528.8Q590.9 527.8 591.3 527.1Q591.7 526.5 593.0 526.4L593.0 526.4Q595.1 526.3 597.5 525.2Q600.0 524.0 600.0 522.2L600.0 522.2L600.0 479.1Q600.0 478.0 599.5 476.4Q599.0 474.9 597.2 473.7Q595.3 472.5 591.5 472.5L591.5 472.5Q587.4 472.5 583.5 473.8Q579.7 475.2 576.7 477.1Q573.7 479.0 571.8 480.7L571.8 480.7L571.8 520.0Q571.8 524.2 574.3 525.2Q576.8 526.1 579.2 526.4L579.2 526.4Q580.6 526.5 581.1 526.9Q581.6 527.3 581.6 528.8L581.6 528.8Q581.6 529.6 581.0 530.6Q580.4 531.6 579.3 531.6L579.3 531.6ZM656.5 531.6L629.2 531.6Q628.0 531.6 627.5 530.6Q626.9 529.6 626.9 528.8L626.9 528.8Q626.9 526.7 629.1 526.4L629.1 526.4Q631.5 526.1 634.1 525.3Q636.7 524.4 636.7 522.2L636.7 522.2L636.7 443.3Q636.7 439.2 635.0 437.7Q633.3 436.2 631.0 435.8Q628.7 435.5 626.9 435.0L626.9 435.0Q626.3 434.7 625.8 434.2Q625.3 433.7 625.3 432.4L625.3 432.4Q625.3 431.6 625.7 430.6Q626.1 429.5 626.9 429.4L626.9 429.4Q633.5 429.0 638.8 429.0Q644.2 428.9 647.0 428.9L647.0 428.9Q647.5 428.9 648.2 429.4Q648.9 429.9 649.0 431.5L649.0 431.5L649.0 500.6L672.7 476.0Q673.7 475.3 673.7 474.7L673.7 474.7Q673.7 473.3 670.7 472.6Q667.6 472.0 665.1 471.8L665.1 471.8Q663.8 471.7 663.4 470.9Q663.0 470.0 663.0 469.0L663.0 469.0Q663.0 468.3 663.6 467.1Q664.2 466.0 665.3 466.0L665.3 466.0L692.1 466.0Q693.2 466.0 693.8 467.1Q694.4 468.3 694.4 469.0L694.4 469.0Q694.4 470.2 693.8 471.0Q693.3 471.8 692.2 471.8L692.2 471.8Q688.9 471.8 685.6 473.7Q682.4 475.7 679.8 477.6L679.8 477.6L668.0 490.3Q669.4 492.6 671.6 496.5Q673.8 500.4 676.6 505.1Q679.3 509.8 682.4 514.3Q685.4 518.9 688.3 522.5L688.3 522.5Q689.7 524.3 691.3 525.4Q692.8 526.4 694.4 526.4L694.4 526.4Q695.5 526.4 696.1 526.9Q696.6 527.4 696.6 528.8L696.6 528.8Q696.6 529.6 696.0 530.6Q695.5 531.6 694.4 531.6L694.4 531.6L676.9 531.6Q675.4 528.8 673.5 525.6Q671.6 522.3 669.6 518.7Q667.6 515.1 665.6 511.6Q663.6 508.1 661.9 504.9Q660.1 501.7 658.8 499.1L658.8 499.1L649.0 509.0L649.0 520.0Q649.0 524.2 651.5 525.2Q653.9 526.1 656.4 526.4L656.4 526.4Q657.8 526.5 658.3 526.9Q658.8 527.3 658.8 528.8L658.8 528.8Q658.8 529.6 658.2 530.6Q657.6 531.6 656.5 531.6L656.5 531.6Z "/><line x1="467" y1="546.305859375" x2="697.25146484375" y2="546.305859375" stroke="#C49F8C" stroke-width="13.5" stroke-linecap="square"/></svg>