<svg width="1200" height="630" viewBox="0 0 1200 630" xmlns="http://www.w3.org/2000/svg"><mask id="satori_om-id"><rect x="0" y="0" width="1200" height="630" fill="#fff"/></mask><clipPath id="satori_bct-id-0"><path d="M5.0 79.2L186.2 79.2L188.6 125.0L178.8 125.0Q177.8 111.1 173.4 103.4Q169.0 95.8 160.3 92.6Q151.7 89.5 137.8 89.5L137.8 89.5Q126 89.5 120.1 90.2Q114.2 91.0 112.4 92.5Q110.6 94.1 110.6 97.0L110.6 97.0L110.6 225.4Q110.6 235.7 112.7 242.0Q114.7 248.4 121.4 251.4Q128.2 254.4 141.6 254.9L141.6 254.9L141.6 264L50.9 264L50.9 254.9Q64.6 254.4 71.2 251.4Q77.8 248.4 79.9 242.0Q82.1 235.7 82.1 225.4L82.1 225.4L82.1 97.0Q82.1 94.1 80.4 92.5Q78.7 91.0 73.8 90.2Q68.9 89.5 58.6 89.5L58.6 89.5Q49.2 89.5 41.3 90.4Q33.4 91.2 27.4 94.6Q21.4 97.9 17.9 105.1Q14.4 112.3 13.9 125.0L13.9 125.0L5.0 125.0L5.0 79.2ZM212.4 85.7L212.4 85.7Q212.4 79.4 216.7 75.1Q221.0 70.8 227.3 70.8L227.3 70.8Q233.5 70.8 237.8 75.1Q242.2 79.4 242.2 85.7L242.2 85.7Q242.2 91.9 237.8 96.2Q233.5 100.6 227.3 100.6L227.3 100.6Q221.0 100.6 216.7 96.2Q212.4 91.9 212.4 85.7ZM193.0 143.5L240 134.4L240 225.8Q240 238.1 241.7 244.4Q243.4 250.8 248.2 253.0Q253.0 255.1 262.3 255.6L262.3 255.6L262.3 264L193.4 264L193.4 255.6Q203.3 255.1 208.2 252.8Q213.1 250.6 214.8 244.7Q216.5 238.8 216.5 227.5L216.5 227.5L216.5 196.8Q216.5 182.9 216.1 173.8Q215.8 164.6 214.8 161.5L214.8 161.5Q213.8 156 209.4 154.0Q205.0 151.9 193.0 151.9L193.0 151.9L193.0 143.5ZM291.1 237.1L291.1 151.9L276.7 151.9L276.7 143.0Q289.4 135.4 296.6 128.0Q303.8 120.7 307.7 110.4L307.7 110.4L314.6 110.4L314.6 140.6L346.8 140.6L346.8 151.9L314.6 151.9L314.6 224.9Q314.6 241.7 318.1 248.2Q321.6 254.6 331.2 254.6L331.2 254.6Q337.2 254.6 341.5 252.1Q345.8 249.6 349.7 243.6L349.7 243.6L355.7 248.2Q348.7 266.4 323.5 266.4L323.5 266.4Q307.7 266.4 299.4 258.7Q291.1 251.0 291.1 237.1L291.1 237.1ZM362.6 73.7L408 64.8L408 226.6Q408 238.6 409.4 244.7Q410.9 250.8 415.6 253.0Q420.2 255.1 429.4 255.6L429.4 255.6L429.4 264L363.1 264L363.1 255.6Q372.7 255.1 377.5 253.0Q382.3 250.8 384.0 245.0Q385.7 239.3 385.7 228.2L385.7 228.2L385.7 124.8Q385.7 111.8 385.3 103.1Q385.0 94.3 384.2 91.2L384.2 91.2Q383.0 85.7 378.6 83.8Q374.2 81.8 362.6 81.8L362.6 81.8L362.6 73.7ZM553.7 235.0L553.7 235.0L561.1 241.7Q540.7 266.4 510.5 266.4L510.5 266.4Q491.8 266.4 477.6 258.2Q463.4 250.1 455.5 235.6Q447.6 221.0 447.6 201.8L447.6 201.8Q447.6 182.2 456.0 166.9Q464.4 151.7 479.2 143.0Q493.9 134.4 513.4 134.4L513.4 134.4Q536.4 134.4 549.2 147Q562.1 159.6 562.1 183.1L562.1 183.1Q562.1 186.2 560.8 187.1Q559.4 187.9 554.6 187.9L554.6 187.9L475.7 187.9Q475.2 189.8 475.0 192.6Q474.7 195.4 474.7 198.7L474.7 198.7Q474.7 215.3 480 227.8Q485.3 240.2 494.9 247.1Q504.5 253.9 517.2 253.9L517.2 253.9Q527.0 253.9 535.9 249.4Q544.8 244.8 553.7 235.0ZM477.4 176.9L477.4 176.9L521.5 176.9Q531.4 176.9 533.6 175.7Q535.9 174.5 535.9 170.2L535.9 170.2Q535.9 159.1 528.7 152.5Q521.5 145.9 509.5 145.9L509.5 145.9Q483.6 145.9 477.4 176.9Z "/></clipPath><defs><pattern id="satori_pattern_id-0_0" x="0" y="0" width="1" height="1" patternUnits="objectBoundingBox"><linearGradient id="satori_biid-0_0" x1="1.097603308900163" y1="0.31459055381135775" x2="-0.09760330890016293" y2="0.6854094461886423" spreadMethod="pad"><stop offset="0%" stop-color="#5955EB"/><stop offset="10%" stop-color="#5955EB"/><stop offset="90%" stop-color="#2622B2"/><stop offset="100%" stop-color="#2622B2"/></linearGradient><rect x="0" y="0" width="581" height="300" fill="url(#satori_biid-0_0)"/></pattern></defs><mask id="satori_om-id-0"><rect x="0" y="30" width="581" height="300" fill="#fff"/></mask><rect x="0" y="30" width="581" height="300" fill="url(#satori_pattern_id-0_0)" clip-path="url(#satori_bct-id-0)"/><mask id="satori_om-id-1"><rect x="0" y="384" width="710" height="216" fill="#fff"/></mask><path fill="#49495A" d="M13.2 544.4L13.2 448.0L40.5 448.0Q58.5 448.0 67.6 453.4Q76.7 458.8 76.7 471.8L76.7 471.8Q76.7 477.4 74.6 481.8Q72.4 486.3 68.4 489.2Q64.3 492.1 58.3 493.2L58.3 493.2L58.3 493.9Q64.6 494.9 69.5 497.5Q74.4 500.1 77.1 504.9Q79.9 509.6 79.9 516.9L79.9 516.9Q79.9 525.8 75.8 532.0Q71.7 538.1 64.1 541.2Q56.6 544.4 46.3 544.4L46.3 544.4L13.2 544.4ZM24.4 457.6L24.4 489.3L42.8 489.3Q55.4 489.3 60.3 485.2Q65.1 481.0 65.1 473.0L65.1 473.0Q65.1 464.8 59.4 461.2Q53.6 457.6 41.0 457.6L41.0 457.6L24.4 457.6ZM43.4 498.8L24.4 498.8L24.4 534.8L44.4 534.8Q57.3 534.8 62.6 529.8Q68.0 524.7 68.0 516.2L68.0 516.2Q68.0 510.7 65.6 506.8Q63.1 502.9 57.8 500.8Q52.4 498.8 43.4 498.8L43.4 498.8ZM161.0 508.1L161.0 508.1Q161.0 517.0 158.7 524.0Q156.4 531.0 152.1 535.8Q147.7 540.6 141.6 543.2Q135.4 545.7 127.6 545.7L127.6 545.7Q120.4 545.7 114.3 543.2Q108.3 540.6 103.9 535.8Q99.5 531.0 97.1 524.0Q94.7 517.0 94.7 508.1L94.7 508.1Q94.7 496.3 98.7 487.9Q102.8 479.6 110.2 475.2Q117.7 470.8 128.1 470.8L128.1 470.8Q138.0 470.8 145.4 475.2Q152.8 479.6 156.9 488.0Q161.0 496.3 161.0 508.1ZM106.1 508.1L106.1 508.1Q106.1 516.8 108.4 523.2Q110.7 529.6 115.5 533.1Q120.3 536.6 127.9 536.6L127.9 536.6Q135.4 536.6 140.2 533.1Q145.1 529.6 147.4 523.2Q149.7 516.8 149.7 508.1L149.7 508.1Q149.7 499.5 147.4 493.2Q145.1 486.9 140.3 483.5Q135.5 480.0 127.8 480.0L127.8 480.0Q116.5 480.0 111.3 487.5Q106.1 494.9 106.1 508.1ZM205.7 545.7L205.7 545.7Q192.0 545.7 183.9 536.3Q175.9 527.0 175.9 508.5L175.9 508.5Q175.9 489.9 184.1 480.3Q192.3 470.8 205.9 470.8L205.9 470.8Q211.6 470.8 215.9 472.3Q220.2 473.8 223.3 476.4Q226.4 478.9 228.5 482.1L228.5 482.1L229.3 482.1Q229.0 480.1 228.7 476.5Q228.5 473.0 228.5 470.7L228.5 470.7L228.5 441.8L239.4 441.8L239.4 544.4L230.6 544.4L228.9 534.1L228.5 534.1Q226.4 537.3 223.3 540.0Q220.2 542.6 215.8 544.1Q211.5 545.7 205.7 545.7ZM207.4 536.6L207.4 536.6Q219.0 536.6 223.8 530.0Q228.6 523.4 228.6 510.4L228.6 510.4L228.6 508.4Q228.6 494.7 224.0 487.3Q219.4 479.9 207.4 479.9L207.4 479.9Q197.3 479.9 192.3 487.6Q187.3 495.4 187.3 508.8L187.3 508.8Q187.3 522.1 192.2 529.3Q197.2 536.6 207.4 536.6ZM280.1 544.5L251.1 472.1L262.9 472.1L278.8 514.0Q280.2 517.7 281.4 521.1Q282.6 524.5 283.5 527.6Q284.4 530.7 285.0 533.6L285.0 533.6L285.4 533.6Q286.3 530.3 288.1 525.0Q289.8 519.6 291.8 514.0L291.8 514.0L306.8 472.1L318.6 472.1L287.2 555.0Q284.7 561.6 281.4 566.6Q278.0 571.5 273.3 574.2Q268.5 576.9 261.8 576.9L261.8 576.9Q258.7 576.9 256.4 576.5Q254.0 576.1 252.3 575.7L252.3 575.7L252.3 566.9Q253.7 567.2 255.8 567.5Q257.9 567.8 260.1 567.8L260.1 567.8Q264.2 567.8 267.2 566.2Q270.2 564.7 272.4 561.7Q274.5 558.7 276.1 554.7L276.1 554.7L280.1 544.5Z M394.8 446.5L394.8 446.5Q401.9 446.5 407.1 449.0Q412.3 451.4 415.1 456.0Q417.9 460.7 417.9 467.2L417.9 467.2Q417.9 475.8 412.3 481.7Q406.7 487.6 398.1 492.5L398.1 492.5L424.9 518.5Q428.5 514.2 430.8 508.7Q433.1 503.1 434.7 496.6L434.7 496.6L445.8 496.6Q443.7 505.3 440.4 512.6Q437.0 519.9 432.0 525.5L432.0 525.5L451.3 544.4L436.5 544.4L424.6 532.7Q420.4 536.6 415.5 539.5Q410.7 542.5 404.8 544.1Q398.9 545.7 391.3 545.7L391.3 545.7Q382.1 545.7 375.3 542.7Q368.5 539.6 364.8 533.8Q361.0 527.9 361.0 519.4L361.0 519.4Q361.0 512.4 363.6 507.4Q366.2 502.4 370.9 498.5Q375.7 494.6 382.3 490.9L382.3 490.9Q379.2 487.5 376.4 484.0Q373.6 480.4 371.9 476.4Q370.2 472.3 370.2 467.4L370.2 467.4Q370.2 460.9 373.2 456.2Q376.2 451.5 381.7 449.0Q387.2 446.5 394.8 446.5ZM417.6 525.8L388.9 497.8Q383.7 500.8 380.1 503.7Q376.4 506.6 374.4 510.2Q372.5 513.9 372.5 519.0L372.5 519.0Q372.5 526.7 377.7 531.4Q382.9 536.0 391.6 536.0L391.6 536.0Q400.6 536.0 406.9 533.0Q413.2 530.1 417.6 525.8L417.6 525.8ZM394.4 455.5L394.4 455.5Q388.4 455.5 384.7 458.6Q380.9 461.8 380.9 467.4L380.9 467.4Q380.9 472.4 383.6 476.6Q386.3 480.8 391.4 486.0L391.4 486.0Q399.6 481.4 403.3 477.2Q407.0 472.9 407.0 467.2L407.0 467.2Q407.0 462.0 403.6 458.7Q400.1 455.5 394.4 455.5Z "/><mask id="satori_om-id-1-1"><rect x="488" y="384" width="222" height="216" fill="#fff"/></mask><path fill="#403ccfff" d="M510.5 441.8L510.5 544.4L499.5 544.4L499.5 441.8L510.5 441.8ZM533.6 472.1L544.6 472.1L544.6 544.4L533.6 544.4L533.6 472.1ZM539.2 445.1L539.2 445.1Q541.9 445.1 543.9 446.8Q545.8 448.6 545.8 452.3L545.8 452.3Q545.8 455.9 543.9 457.7Q541.9 459.5 539.2 459.5L539.2 459.5Q536.4 459.5 534.5 457.7Q532.6 455.9 532.6 452.3L532.6 452.3Q532.6 448.6 534.5 446.8Q536.4 445.1 539.2 445.1ZM601.9 470.8L601.9 470.8Q614.8 470.8 621.4 477.1Q627.9 483.4 627.9 497.3L627.9 497.3L627.9 544.4L617.1 544.4L617.1 498.0Q617.1 489.0 613.0 484.5Q608.9 480.0 600.4 480.0L600.4 480.0Q588.4 480.0 583.5 486.8Q578.6 493.6 578.6 506.5L578.6 506.5L578.6 544.4L567.7 544.4L567.7 472.1L576.5 472.1L578.2 482.5L578.8 482.5Q581.1 478.7 584.6 476.1Q588.2 473.5 592.6 472.2Q597.0 470.8 601.9 470.8ZM650.5 441.8L661.4 441.8L661.4 495.1Q661.4 497.7 661.2 501.5Q661.0 505.3 660.8 508.2L660.8 508.2L661.3 508.2Q662.7 506.5 665.4 503.1Q668.0 499.7 669.9 497.7L669.9 497.7L693.9 472.1L706.7 472.1L677.6 503.0L708.8 544.4L695.6 544.4L670.1 510.2L661.4 518.2L661.4 544.4L650.5 544.4L650.5 441.8Z "/><line x1="488" y1="560.4090087890625" x2="709.8798828125" y2="560.4090087890625" stroke="#403ccfff" stroke-width="13.5" stroke-linecap="square"/></svg>