<svg xmlns="http://www.w3.org/2000/svg" viewBox="0 0 155 154">
<!-- SVG created with Arrow, by QuiverAI (https://quiver.ai) -->
  <style type="text/css">.cls-0 {fill:#090D12;}
.cls-1 {fill:url(#SVGID_1_);}
.cls-2 {fill:url(#SVGID_2_);}
.cls-3 {fill:none;stroke:url(#SVGID_3_);stroke-width:0.5;stroke-miterlimit:10;}
.cls-4 {fill:url(#SVGID_4_);}
.cls-5 {fill:url(#SVGID_5_);}
.cls-6 {fill:url(#SVGID_6_);}
.cls-7 {fill:url(#SVGID_7_);}
.cls-8 {fill:#18232F;}
.cls-9 {fill:url(#SVGID_8_);}
.cls-10 {fill:url(#SVGID_9_);}
.cls-11 {opacity:0.5;fill:url(#SVGID_10_);enable-background:new    ;}
.cls-12 {fill:none;stroke:#50E6FF;stroke-width:0.2;stroke-linecap:round;stroke-linejoin:round;stroke-miterlimit:10;}
.cls-13 {fill:#EDFDFF;stroke:#50E6FF;stroke-width:0.32;stroke-miterlimit:10;}</style>
  <path class="cls-0" d="m154 37c0-17-9.4-28.5-21.6-33.9-4.6-2.1-11-2.1-19.6-2.1h-70.6c-8.2 0-14.2 0-19.6 2.1-12.2 4.5-21.6 15.9-21.6 33.9v77.1c0 8.9 0.6 16.5 5.9 23.9 5.5 7.7 12.8 11.8 21.7 13.3 4.5 0.7 13.2 0.7 13.7 0.7h70.4s8.9 0 13.6-0.3c8.5-0.4 16.6-2.9 22.1-8.2s5.6-12.1 5.6-25.5v-81z"/>
  <linearGradient id="SVGID_1_" x1="20.5" x2="134.6" y1="-808.4" y2="-808.4" gradientTransform="matrix(1 0 0 -1 0 -709.8)" gradientUnits="userSpaceOnUse">
    <stop stop-color="#0C1B2A" offset="0"/>
    <stop stop-color="#2F3B4A" offset=".5044"/>
    <stop stop-color="#07101B" offset="1"/>
  </linearGradient>
  <path class="cls-1" d="m134.6 97-5 0.5-41.1-26.8c-6.1-3.6-15.2-4.2-21.5-0.2l-41 22.5c-3 1.4-5.5 3-5.5 4.2v3.7c0 2.7 1.3 5.1 5.1 7.4l40.4 26.7c6.1 3.6 13.9 5.1 22.4 0.9l41.1-26.8c3-2 5-4.1 5.1-7.7v-4.4z"/>
  <linearGradient id="SVGID_2_" x1="21.1" x2="134.1" y1="-806.6" y2="-806.6" gradientTransform="matrix(1 0 0 -1 0 -709.8)" gradientUnits="userSpaceOnUse">
    <stop stop-color="#1F2B36" offset="0"/>
    <stop stop-color="#253747" offset=".5044"/>
    <stop stop-color="#061220" offset="1"/>
  </linearGradient>
  <path class="cls-2" d="m88.4 131.1c-6.2 3.9-14.8 4.9-21 1.1l-42.1-27.3c-5.6-3.6-5.3-8.8 0-12.9l41.1-25.3c6.3-3.9 14.6-4.3 20.9-0.4l42.3 25.1c5.7 3.6 5.8 9.1 0 12.6l-41.2 27.1z"/>
  <linearGradient id="SVGID_3_" x1="21.79" x2="133.6" y1="-806.8" y2="-806.8" gradientTransform="matrix(1 0 0 -1 0 -709.8)" gradientUnits="userSpaceOnUse">
    <stop stop-color="#587C94" offset="0"/>
    <stop stop-color="#fff" offset=".5044"/>
    <stop stop-color="#172839" offset="1"/>
  </linearGradient>
  <path class="cls-3" d="m88 130.4c-5.3 3.3-13.9 4.6-20.1 0.8l-42.1-27.4c-5.8-3.5-5.3-8.7 0-12.1l41.3-25.7c5.9-3.7 13.9-3.7 19.8-0.4l41.9 25.4c5.7 3.4 6.2 8.5 0.5 12.3l-41.3 27.1z"/>
  <linearGradient id="SVGID_4_" x1="20.03" x2="135.1" y1="-799" y2="-799" gradientTransform="matrix(1 0 0 -1 0 -709.8)" gradientUnits="userSpaceOnUse">
    <stop stop-color="#40AC9D" offset="0"/>
    <stop stop-color="#47EBCE" offset=".5044"/>
    <stop stop-color="#30988C" offset="1"/>
  </linearGradient>
  <path class="cls-4" d="m135.1 77.2-4.3-0.1-41.8-23.6c-6-3.7-14.8-4.2-20.9-0.5l-42.7 17.7c-2.8 2-5.3 3.9-5.3 6.5v3.4c-0.1 3 1.7 5.3 4.5 7.1l43.3 28.3c5.4 3.2 12.8 4.1 19.1 0.6l43.9-29.2c2.5-1.5 4.2-3.9 4.2-6.3v-3.9z"/>
  <linearGradient id="SVGID_5_" x1="20.59" x2="134.7" y1="-797.6" y2="-797.6" gradientTransform="matrix(1 0 0 -1 0 -709.8)" gradientUnits="userSpaceOnUse">
    <stop stop-color="#40AC9D" offset="0"/>
    <stop stop-color="#78FEF3" offset=".2542"/>
    <stop stop-color="#4EF5DA" offset=".5044"/>
    <stop stop-color="#7DFDF2" offset=".7519"/>
    <stop stop-color="#40AE9E" offset="1"/>
  </linearGradient>
  <path class="cls-5" d="m87.4 114.5c-4.8 3.1-12.9 5.1-19.9 1l-42.8-31.5c-5-2.9-5.7-9.3-0.1-12.9l41.6-25.7c6-3.8 14.3-4.5 20.3-0.8l43.6 26.1c6 3.7 6.3 9.2-0.1 13.4l-42.6 30.4z"/>
  <linearGradient id="SVGID_6_" x1="21.5" x2="133.8" y1="-797.4" y2="-797.4" gradientTransform="matrix(1 0 0 -1 0 -709.8)" gradientUnits="userSpaceOnUse">
    <stop stop-color="#4DA697" offset="0"/>
    <stop stop-color="#AAFDF2" offset=".2542"/>
    <stop stop-color="#43DCBE" offset=".5044"/>
    <stop stop-color="#AAFFF3" offset=".7519"/>
    <stop stop-color="#50ADA0" offset="1"/>
  </linearGradient>
  <path class="cls-6" d="m86.9 111.9c-4.9 3.1-12.4 3.8-17.9 0.8l-43.7-29.7c-4.8-3.3-5.3-8.5 0-11.6l41-25.3c5.3-3.1 12.9-3.5 18.2-0.5l44.8 26.1c5.2 3 6 8.2 0 11.8l-42.4 28.4z"/>
  <radialGradient id="SVGID_7_" cx="76.89" cy="-804.7" r="37.09" gradientTransform="matrix(1 0 0 -1 0 -709.8)" gradientUnits="userSpaceOnUse">
    <stop stop-color="#062124" stop-opacity=".9" offset="0"/>
    <stop stop-color="#061617" stop-opacity="0" offset="1"/>
  </radialGradient>
  <path class="cls-7" d="m86.6 111.5c-5 3.1-12.1 3.4-17.1 0.5l-44.1-29.3c-4.5-3.2-4.6-8.1 0.5-11l41-25.2c4.7-3.1 12.6-3.6 17.2-0.9l45.2 26.1c5.1 3 5.1 7.8 0 10.9l-42.7 28.9z"/>
  <path class="cls-8" d="m133.2 55-4.2-0.3-41.5-25.2c-4.8-3.2-13.5-3-19.6 0.5l-41.1 17.6c-2.8 2-4.8 4-4.8 7v3.3c0 3 1.4 5.7 4.9 7.8l41.1 26.3c5 3 12 4.5 19.4 0.5l41.6-26.6c2.4-1.5 4.2-4 4.3-6.9l-0.1-4z"/>
  <linearGradient id="SVGID_8_" x1="22.3" x2="133.1" y1="-784.5" y2="-784.5" gradientTransform="matrix(1 0 0 -1 0 -709.8)" gradientUnits="userSpaceOnUse">
    <stop stop-color="#0C111A" offset="0"/>
    <stop stop-color="#273743" offset=".5044"/>
    <stop stop-color="#09121B" offset="1"/>
  </linearGradient>
  <path class="cls-9" d="m87.2 92.1c-5.2 2.9-12.2 3.9-18.8 0.4l-41.7-26.5c-6.1-3.9-6.5-11.9 1.3-17l39.4-23.6c6.7-4.4 13-4.9 19.5-1.7l40 22.2c7.9 4.5 8.5 12.2 1 16.7l-40.7 29.5z"/>
  <linearGradient id="SVGID_9_" x1="22.4" x2="132.8" y1="-783.9" y2="-783.9" gradientTransform="matrix(1 0 0 -1 0 -709.8)" gradientUnits="userSpaceOnUse">
    <stop stop-color="#303945" offset="0"/>
    <stop stop-color="#BEC2CC" offset=".5044"/>
    <stop stop-color="#636976" offset="1"/>
  </linearGradient>
  <path class="cls-10" d="m87.2 89.4c-4.7 3-12.3 4-18.2 0.6l-41.3-27.4c-6.1-3.6-7.3-10.6 0.3-16l39.9-23.6c5.2-3.1 12.1-4.5 18.6-0.9l40 23.5c6.9 3.8 9.4 10.9 0.9 16.3l-40.2 27.5z"/>
  <linearGradient id="SVGID_10_" x1="92.93" x2="61.41" y1="-738.9" y2="-795.2" gradientTransform="matrix(1 0 0 -1 0 -709.8)" gradientUnits="userSpaceOnUse">
    <stop stop-color="#575C65" offset="0"/>
    <stop stop-color="#161F29" offset="1"/>
  </linearGradient>
  <path class="cls-11" d="m86.9 88.4c-4.6 3-12.4 3.7-17.4 0.6l-41.8-27.1c-6.1-3.8-5.6-9.5 0.3-14.4l39.9-23.5c5-3 12.1-3.9 18.5-0.5l40 22.9c6.6 3.6 8.2 9.6 1 15.1l-40.5 26.9z"/>
  <path d="m23 54.6-0.1 0.4c0.1 2.5 1.6 4.9 4.6 6.9l41.1 26.6c2.9 1.9 6 3 8.8 3 3.6 0 7.1-1 9.5-2.5l40.5-25.5c2.6-1.5 4.6-3.9 5.2-6.5v-1.1c-0.2 2.1-1.7 4.6-5 6.6l-40.7 25.5c-2.4 1.6-5.5 3-9.4 3-3 0-5.9-0.5-8.6-2.1l-41.4-26.3c-3-2-4.5-4.6-4.5-7.1v-0.9z" fill="#fff" stroke="#40eaff" stroke-width=".2px"/>
  <polyline class="cls-12" points="44.6 57.5 77.5 37.9 110.5 57.5 77.5 77.5 44.5 57.5"/>
  <polyline class="cls-12" points="55.6 50.4 77.5 64.4 100 50.4"/>
  <polyline class="cls-12" points="55.8 64.4 77.5 50.5 99.5 64.4"/>
  <polyline class="cls-12" points="66.7 44 77.5 50.5 88.5 43.9"/>
  <polyline class="cls-12" points="66.7 70.9 77.5 64.4 88.5 70.9"/>
  <ellipse class="cls-13" cx="77.5" cy="38" rx="1.9" ry="1.5"/>
  <ellipse class="cls-13" cx="66.6" cy="44.1" rx="1.9" ry="1.5"/>
  <ellipse class="cls-13" cx="55.7" cy="50.5" rx="1.9" ry="1.5"/>
  <ellipse class="cls-13" cx="44.5" cy="57.5" rx="1.9" ry="1.5"/>
  <ellipse class="cls-13" cx="88.5" cy="44.1" rx="1.9" ry="1.5"/>
  <ellipse class="cls-13" cx="99.5" cy="50.5" rx="1.9" ry="1.5"/>
  <ellipse class="cls-13" cx="110.5" cy="57.5" rx="1.9" ry="1.5"/>
  <ellipse class="cls-13" cx="77.5" cy="50.5" rx="1.9" ry="1.5"/>
  <ellipse class="cls-13" cx="66.6" cy="57.5" rx="1.9" ry="1.5"/>
  <ellipse class="cls-13" cx="55.7" cy="64.3" rx="1.9" ry="1.5"/>
  <ellipse class="cls-13" cx="88.5" cy="57.5" rx="1.9" ry="1.5"/>
  <ellipse class="cls-13" cx="99.5" cy="64.3" rx="1.9" ry="1.5"/>
  <ellipse class="cls-13" cx="77.5" cy="64.3" rx="1.9" ry="1.5"/>
  <ellipse class="cls-13" cx="66.6" cy="70.8" rx="1.9" ry="1.5"/>
  <ellipse class="cls-13" cx="88.5" cy="70.8" rx="1.9" ry="1.5"/>
  <ellipse class="cls-13" cx="77.5" cy="77.5" rx="1.9" ry="1.5"/>
</svg>